<svg xmlns="http://www.w3.org/2000/svg" xmlns:xlink="http://www.w3.org/1999/xlink" id="Layer_1" x="0" y="0" enable-background="new 0 0 50 50" version="1.1" viewBox="0 0 50 50" xml:space="preserve"><g><g id="Layer_1_2_"><polygon fill="#5294CF" points="40.9 9.9 44.1 11.4 44.1 38.4 40.9 40 35.9 25"/><polygon fill="#205B99" points="9.1 9.9 5.9 11.4 5.9 38.4 9.1 40 17 25"/><polygon fill="#205B99" points="25 36.1 40.9 40 40.9 9.9 25 13.8"/><polygon fill="#5294CF" points="25 36.1 9.1 40 9.1 9.9 25 13.8"/><polygon fill="#5294CF" points="28.8 46 34.9 42.9 34.9 7.1 28.8 4 22.8 24"/><polygon fill="#205B99" points="21.2 46 15.1 42.9 15.1 7.1 21.2 4 26.6 25"/><rect width="7.6" height="42" x="21.2" y="4" fill="#2E73B8"/></g></g></svg>