<svg xmlns="http://www.w3.org/2000/svg" xmlns:xlink="http://www.w3.org/1999/xlink" id="Layer_1" x="0" y="0" version="1.1" viewBox="0 0 142.2 142.1" xml:space="preserve" style="enable-background:new 0 0 142.2 142.1"><style type="text/css">.st0{fill:#0f9d59}.st1{fill:#0a6e3d}.st2{fill:#4284f4}</style><path d="M107.5,142.1l34.6,0l0-0.1L94.9,0.2v136.5C98.1,140,102.5,142.1,107.5,142.1" class="st0"/><path d="M71.1,71l19.8,59.3c0,0,0,0,0,0c0.9,2.4,2.3,4.5,4,6.3V0.2L94.8,0L71.1,71z" class="st1"/><path d="M47.4,0L47.4,0L47.4,0L0,142l0,0.1h34.6c5,0,9.5-2.1,12.7-5.4c1.7-1.8,3.1-3.9,4-6.3c0,0,0,0,0,0L94.8,0L47.4,0	L47.4,0L47.4,0z" class="st2"/></svg>